<svg id="Calque_1" data-name="Calque 1" xmlns="http://www.w3.org/2000/svg" viewBox="0 0 459.36 458.64">
  <defs>
    <style>
      .cls-1{fill:#FFF;}
      .cls-2{fill:#1DACFC;}
    </style>
  </defs>
  <title>Capture d’écran 2018-02-27 à 18.59.09</title>
  <path class="cls-1" d="M445.68,685.2V226.56H905V685.2ZM846.92,460.89H847c0-1.71,0-3.43,0-5.15-.08-12.92-.1-25.83-.27-38.75-.08-6.43-.12-12.89-.76-19.27a83,83,0,0,0-13.79-38c-8.18-12.34-19.06-21.81-31.77-29.2-15.23-8.85-30.58-17.51-45.85-26.28s-30.5-17.79-45.93-26.37A85.39,85.39,0,0,0,673.27,267c-13.94-1-27.44.73-40.14,6.57-7.89,3.63-15.51,7.91-23.07,12.2-15.43,8.75-30.71,17.76-46.12,26.55-11.79,6.73-23.85,13-35.19,20.52-10.48,6.93-19.6,15.27-26.64,25.75-9.73,14.47-14.11,30.58-14.2,47.88-.11,23.56,0,47.12,0,70.68,0,12.84-.17,25.68,0,38.51a84.92,84.92,0,0,0,6.49,31c6.48,16,16.41,29.15,31.21,38.26q16.21,10,32.74,19.49,34.71,20.06,69.56,39.85c18.18,10.33,37.63,12.11,57.8,7.86,10.22-2.15,19.58-6.58,28.58-11.75q42.15-24.18,84.25-48.47c9.06-5.19,17.64-11,25-18.5,13.89-14.3,21.25-31.52,22.68-51.28.56-7.8.63-15.65.7-23.48C847,486.09,846.92,473.49,846.92,460.89Z" transform="translate(-445.68 -226.56)"/>
  <path class="cls-2" d="M847,460.87c0,12.59.08,25.19,0,37.79-.07,7.83-.15,15.68-.71,23.48-1.42,19.76-8.78,37-22.68,51.28-7.31,7.54-15.9,13.31-25,18.5q-42.17,24.18-84.25,48.47c-9,5.17-18.37,9.61-28.59,11.76-20.16,4.24-39.61,2.46-57.79-7.86q-34.86-19.8-69.57-39.85-16.5-9.53-32.74-19.5c-14.8-9.11-24.73-22.29-31.2-38.26a84.92,84.92,0,0,1-6.49-31c-.17-12.83,0-25.67,0-38.51,0-23.55-.12-47.11,0-70.67.08-17.3,4.47-33.41,14.19-47.89,7.05-10.48,16.17-18.82,26.65-25.75,11.34-7.51,23.39-13.78,35.19-20.51,15.4-8.8,30.68-17.81,46.11-26.56,7.57-4.29,15.18-8.56,23.08-12.19,12.7-5.84,26.2-7.62,40.13-6.57a85.23,85.23,0,0,1,35.36,10.8c15.43,8.58,30.62,17.58,45.93,26.37s30.62,17.43,45.85,26.28c12.72,7.39,23.6,16.86,31.78,29.2a83.18,83.18,0,0,1,13.79,38c.64,6.39.67,12.85.76,19.27.17,12.92.19,25.84.26,38.75,0,1.72,0,3.44,0,5.16ZM703.62,372.76c2.06.27,2.63,1.57,3.22,2.85q37.42,80.79,74.78,161.63c1.84,4,8.92,6.28,12.38,3.87a3.35,3.35,0,0,0,1-4.18c-.54-1.16-1.19-2.27-1.73-3.44-11.77-25.47-23.47-51-35.33-76.42-15.42-33-31-66-46.37-99-1.82-3.91-4.08-5.69-8.41-5.38-3,.21-5,1.29-6.22,4.1-2.53,5.78-5.19,11.5-7.85,17.22-5.75,12.38-11.55,24.75-17.3,37.13a18,18,0,0,1-4.37,5.37,30.77,30.77,0,0,1-3.24-4.58q-12.83-27.37-25.5-54.85c-1.56-3.37-3.3-4.52-7-4.39-.48,0-.95.06-1.43.08a5.84,5.84,0,0,0-5.44,3.65c-4,8.73-8.14,17.44-12.21,26.15q-26.18,56.06-52.33,112.1-9.4,20.19-18.64,40.47a10.19,10.19,0,0,0-.76,3.84,2.93,2.93,0,0,0,2,2.88,9.66,9.66,0,0,0,11-4.77q11.54-24.82,23-49.66l50.4-108.64c1-2.19,2.08-4.35,3.3-6.89,1.54,2.26,3.19,4.13,4.23,6.28,4.57,9.49,9,19.08,13.43,28.62,3.27,7,6.51,14,9.85,20.91a14.32,14.32,0,0,1,0,13.22c-6.09,12.66-12,25.42-17.95,38.14-1.67,3.59-3.28,7.2-4.89,10.81-1.15,2.57-3,4.07-5.93,4-1.28,0-2.56,0-3.84,0l-14.28.14a8.93,8.93,0,0,0-2.47.34c-3.58,1-4.65,3.36-4.13,5.88.36,1.72,2,2.26,3.57,2.5a13.4,13.4,0,0,0,2.1.15c5.58.05,11.16.07,16.74.1.42,0,.83,0,1.48.06a53.34,53.34,0,0,1-1.75,5.27c-4,8.88-8.11,17.72-12.19,26.57a7.74,7.74,0,0,0-.45,4.91,2.77,2.77,0,0,0,2.19,2.27c3.38.94,8.29-1.18,9.86-4.34,2.85-5.76,5.7-11.52,8.45-17.33,2-4.29,3.89-8.67,5.86-13A6.87,6.87,0,0,1,647,503c4.19-.08,8.39,0,12.59,0h28.17a9.52,9.52,0,0,1,8,5.25l.05.13a5.59,5.59,0,0,1,.22.57c1.72,5.1,2.13,5.72,7.59,15.19a49.87,49.87,0,0,1,4.67,11.74,7.42,7.42,0,0,0,4.51,5.42,12.15,12.15,0,0,0,7.54.17,2.55,2.55,0,0,0,2-3.42,17.89,17.89,0,0,0-1.19-3.12c-4.71-10.17-10.06-20.06-13.93-30.62-.15-.39-.28-.79-.46-1.32H708c5.4,0,10.8,0,16.2,0a35.82,35.82,0,0,0,3.59-.2,3.11,3.11,0,0,0,2.84-2.23c1.22-3.84-.74-6.59-4.74-6.65-1.74,0-3.32-.23-5.19-.24-4.38,0-4.38,0-7.1-.11-7.71-.23-12.1.15-14.39-5.44-1-2.44-2-4.9-3.08-7.29-6.22-13.28-12.43-26.57-18.8-39.78a14.48,14.48,0,0,1,.05-13.24c5.88-12.46,11.64-25,17.54-37.41C697.7,384.43,700.73,378.58,703.62,372.76Z" transform="translate(-445.68 -226.56)"/>
  <path class="cls-1" d="M703.56,372.79c-2.9,5.82-5.92,11.67-8.74,17.61-5.9,12.45-11.66,25-17.54,37.41a14.54,14.54,0,0,0-.06,13.25c5.36,11.11,10.61,22.27,15.84,33.45,2.1,4.48,4.16,9,6,13.57,1.63,4,4.48,5.82,8.71,5.81,5.52,0,11,0,16.55,0h1.44c4,.06,6,2.8,4.74,6.64a3.1,3.1,0,0,1-2.83,2.23,33.22,33.22,0,0,1-3.59.2c-5.4,0-10.8,0-16.2,0h-1.24c.19.53.32.93.46,1.32,3.87,10.56,9.22,20.45,13.94,30.62a17.89,17.89,0,0,1,1.19,3.12,2.55,2.55,0,0,1-2,3.41,12.18,12.18,0,0,1-7.55-.16,6.84,6.84,0,0,1-3.89-3.72c-3.33-7.12-6.57-14.29-9.94-21.39-1.67-3.26-3-7.22-2.8-10.52.19-2.76,2-2-.62-2.46a16.69,16.69,0,0,0-2.74-.21H659.51c-4.19,0-8.39-.06-12.59,0a6.86,6.86,0,0,0-6.45,4.39c-2,4.33-3.82,8.71-5.85,13-2.75,5.81-5.61,11.57-8.46,17.33-1.56,3.16-6.47,5.28-9.86,4.34a2.79,2.79,0,0,1-2.19-2.27,7.78,7.78,0,0,1,.46-4.92c4.08-8.84,8.17-17.68,12.19-26.56a51.69,51.69,0,0,0,1.74-5.27c-.65,0-1.06-.07-1.47-.07-5.64,0-11.28,0-16.92-.09a13,13,0,0,1-2.49-.25c-1.39-.29-2.69-.88-3-2.4a4.43,4.43,0,0,1,1.47-4.56,7.07,7.07,0,0,1,4.53-1.65q7.44-.09,14.87-.15c1.28,0,2.56,0,3.84,0,2.92,0,4.78-1.47,5.93-4.05,1.62-3.6,3.22-7.22,4.9-10.8,6-12.73,11.86-25.48,18-38.14a14.32,14.32,0,0,0-.05-13.22c-3.34-6.94-6.58-13.93-9.85-20.91-4.47-9.55-8.87-19.13-13.44-28.62-1-2.16-2.68-4-4.23-6.28-1.21,2.53-2.28,4.7-3.29,6.88Q602,433.11,576.85,487.43q-11.52,24.82-23,49.65a9.68,9.68,0,0,1-10.7,4.87c-1.66-.46-2.38-1.17-2.33-2.87a10.28,10.28,0,0,1,.77-3.94q9.24-20.26,18.64-40.47,26.13-56.07,52.32-112.1,6.12-13.08,12.22-26.15a5.8,5.8,0,0,1,5.43-3.65l1.44-.09c3.72-.12,5.47,1,7,4.4q12.71,27.45,25.49,54.85a30.85,30.85,0,0,0,3.25,4.58,18.46,18.46,0,0,0,4.37-5.37c5.74-12.39,11.54-24.75,17.29-37.13,2.66-5.72,5.33-11.44,7.85-17.22,1.23-2.82,3.19-3.89,6.22-4.11,4.33-.3,6.59,1.48,8.41,5.39,15.35,33.06,31,66,46.37,99,11.87,25.43,23.56,50.95,35.34,76.42.55,1.2,1.22,2.34,1.77,3.53.94,2,.39,3.41-1.61,4.42-3.62,1.84-10.08-.4-11.83-4.2q-37.26-80.88-74.78-161.64C706.18,374.36,705.62,373.05,703.56,372.79ZM688.08,493.21c-1.21-3.09-2.18-6-3.46-8.78-2.48-5.36-5.22-10.6-7.72-15.95-3.38-7.26-5.56-14.79-4.53-23a.94.94,0,0,0-.46-.77c-.39-.11-1.07-.19-1.25,0a24.16,24.16,0,0,0-3.32,4.48c-4.81,10-9.49,20.14-14.19,30.23-1.62,3.47-3.26,6.94-4.74,10.47-1.14,2.72-.38,3.79,2.54,3.95,1.39.07,2.79.12,4.19.12,9.11,0,18.23,0,27.34-.11A48.06,48.06,0,0,0,688.08,493.21Z" transform="translate(-445.68 -226.56)"/>
  <path class="cls-2" d="M687.31,491.19a1.76,1.76,0,0,1-1.37,2.35,22.36,22.36,0,0,1-3.46.39c-9.11.09-18.23.09-27.34.11-1.4,0-2.8-.05-4.19-.12-2.92-.16-3.68-1.23-2.54-3.95,1.48-3.53,3.12-7,4.74-10.47,4.7-10.09,9.38-20.19,14.19-30.23.79-1.65.29-1.26,1.62-1.32.19,0,.34.14.7,1.18.27.78.67,1.66,1.12,2.83,3.18,8.23,3.58,8.32,6.65,16.22,0,0,0,.07.05.1,2.48,5.33,4.66,10.81,7.14,16.15C685.62,486.59,686.43,488.84,687.31,491.19Z" transform="translate(-445.68 -226.56)"/>
</svg>
